<?xml version="1.0" encoding="UTF-8" standalone="no"?>
<!DOCTYPE svg PUBLIC "-//W3C//DTD SVG 1.1//EN" "http://www.w3.org/Graphics/SVG/1.1/DTD/svg11.dtd">
<svg width="100%" height="100%" viewBox="0 0 600 600" version="1.1" xmlns="http://www.w3.org/2000/svg" xmlns:xlink="http://www.w3.org/1999/xlink" xml:space="preserve" xmlns:serif="http://www.serif.com/" style="fill-rule:evenodd;clip-rule:evenodd;stroke-linejoin:round;stroke-miterlimit:2;">
    <g transform="matrix(1,0,0,1,44.099,18.901)">
        <g id="Layer2">
            <path d="M228.271,459.828C241.3,459.828 253.383,458.252 264.521,455.1C275.659,451.948 282.872,447.197 292.538,440.472C296.321,433.748 302.347,426.415 304.239,418.85C306.13,411.285 307.496,402.669 308.336,393.002C309.177,383.335 309.597,372.198 309.597,359.589L309.597,96.067L321.576,122.545L297.619,106.154L326.619,111.198C312.329,113.299 298.249,115.085 284.38,116.556C270.51,118.027 219.025,122.23 206.836,122.861C194.648,123.491 182.88,123.806 171.532,123.806C163.967,123.806 157.768,122.335 152.934,119.393C148.101,116.451 138.749,93.545 138.749,85.98C138.749,80.937 138.96,76.524 139.38,72.741C139.8,68.959 140.431,65.806 141.271,63.285C155.981,62.864 170.586,62.549 185.086,62.339C199.586,62.129 214.191,61.814 228.902,61.393C243.612,60.973 258.322,60.763 273.032,60.763L316.532,60.763C329.141,60.763 339.228,61.919 346.793,64.23C354.358,66.542 360.032,70.219 363.815,75.263C367.597,80.306 369.489,86.611 369.489,94.176L369.489,366.524C369.068,387.538 365.811,407.292 359.717,425.785C353.623,444.277 344.481,460.248 332.293,473.698C320.104,487.147 304.869,497.759 286.586,505.535C268.304,513.31 246.764,517.198 221.967,517.198C208.938,517.198 196.224,516.147 183.825,514.046C171.427,511.944 160.184,508.897 150.097,504.904C140.01,500.912 132.025,495.763 126.141,489.459C123.199,486.517 112.271,457.727 112.271,452.263C112.271,446.379 112.586,441.125 113.217,436.502C113.847,431.879 114.793,427.886 116.054,424.524L119.836,424.524C131.184,433.35 142.217,440.285 152.934,445.328C163.652,450.372 174.999,454.049 186.978,456.361C198.956,458.672 212.72,459.828 228.271,459.828Z" style="fill:rgb(0,59,198);fill-rule:nonzero;"/>
        </g>
    </g>
</svg>
