
<svg xmlns="http://www.w3.org/2000/svg" xml:space="preserve" style="fill-rule:evenodd;clip-rule:evenodd;stroke-linejoin:round;stroke-miterlimit:2;fill:#000ef7" viewBox="0 0 1925 225">
  <path d="M0 0h1925v225H0z" style="fill:none"/>
  <path d="M0-30.1c-.97.05-2.16 1.9-2.25 2.49-.22 1.36-1.65 18.58-2.1 19.85-.43 1.27-2.19 2.68-2.92 2.78s-2.63-.54-3.07-1.6c-.44-1.08-.27-2.71-.3-3.18-.04-1.03-1.65-4.1-3.21-4.1s-3.01 2.4-3.08 4.2c-.14 3.76 2.1 5.85 3.8 7.12C-11.4-1.27-9.5.15-7.65 0s4.68-1.37 5.76-2.98c1.07-1.6 3.7-8.48 3.7-10.24S3.27-26.4 3.07-26.88 2.48-30.21 0-30.1" style="fill-rule:nonzero" transform="matrix(4 0 0 5 120.57 195.54)"/>
  <path d="M0 20.44s4.05.2 5.41-.34 3.28-2.42 1.17-4.88c-.83-.98-6-.15-6-.15.1 2.15-.58 5.37-.58 5.37M-5.46-5.4c1.09-.8 4.53-1.2 5.6-1.49 1.08-.3 4.1-.2 5.8-.2 1.72 0 3.96 1.62 4.74 2.25s4.34 3.61 4.83 6.05-.78 5.76-1.31 7.46c-.54 1.71-3.96 3.95-3.96 3.95s2.54 1.85 2 5.76c-.24 1.74-2.95 4.7-4.3 5.36-2.92 1.47-9.11 1.42-9.11 1.42l-1.51 1.22s-2.35 1.22-3.27-.93l-1.12-2.54 1.6-.38s.15-2.35.15-3.52.69-3.51.69-3.51l-.98-.58.98-.93s1.4-5.12 1.6-6.68c.2-1.57 3.27-6 4.74-6.2C3.17.92 3.6 2.3 3.6 3.95s-1.9 6-1.9 6 2.1.05 3.6-.54C6.83 8.83 10.3 6.63 10.78 6s.39-2.73.1-3.37C10.58 2 6.1-2.29 4.05-2.39s-4.2.39-5.27.78-2.44 2.88-3.46 2.88c-1.03 0-1.03-2.08-1.71-3.32-.38-.7.02-2.67.93-3.34" style="fill-rule:nonzero" transform="matrix(4 0 0 5 248.2 63.5)"/>
  <path d="M0-15.7s.4 2.9.23 4.45c-.17 1.54-.64 2.15 0 2.8.34.34 3.88-.23 5.25-.52 3.08-.64 3.36-3.14 3.49-4.68.11-1.42 0-3.34-1.6-3.77C4.8-18.1.86-15.53 0-15.7m-8.5-5.43s3.36-.57 7.3-.11c2.91.33 4.06-1.03 4.06-1.03s.62-.06 1.2-.06c.57 0 2.76-.12 3.74.16.97.29 4.36 1.1 4.54 2.24s.57 4.4.9 4.86c.35.45.4 1.82.4 2.22s-.96 2.06-.96 2.51c0 .46.46.97-.46 2.34-.76 1.15-4.17 2.75-4.17 3.37s.92 1.89.92 2.4c0 .52-.17 1.6.4 2.23s5.08 2.11 5.54 2.8 1.48 2.11 1.02 2.91-3.25 1.66-4.34 1.6S8.17 5.6 7.5 5.03c-.7-.58-2.52-1.89-2.92-3.09-.33-.97-.92-3.6-1.32-4.17S.13-3.6-.45-3.37-1.08-1.14-1.83.17c-.75 1.32-1.1 3.14-1.66 4.11-.57.98-3.26 3.03-3.88 3.2s-1.95-.91-2-1.49c-.06-.57-.52-1.65-.18-2.22s2-3.03 2.69-5.08c.23-.7 1.03-5.6 1.2-6.57s.4-4.11.4-5.08-.35-3.09-.92-3.14c-2.15-.22-2.4-1.23-2.4-1.66 0-.4-.74-1.31-.56-2s-.06-.8.62-1.37" style="fill-rule:nonzero" transform="matrix(4 0 0 5 377 156.81)"/>
  <path d="M0-17.65s-.63 1.83-1.83 3.03-4.28 4.57-4.28 4.57 3.26.17 5.08.4c1.83.22 3.14.11 3.14-.4 0-.52-.16-2.23-.84-3.38C.58-14.57 0-17.65 0-17.65m2.46-6.8c.57.24.68 2.24.85 2.64s1.77 5.25 2.06 6.28c.28 1.02 1.63 4.2 1.69 6.43.05 2.22-.26 6.3-.78 7.5-.51 1.2.06 3.48.06 4.74s-2.57 3.43-3.2 3.65c-.63.23-1.03-.4-1.6-1.02C.97 5.14.91 2.8.91 1.82c0-.97.92-2.4.92-3.42 0-1.03-.29-3.26-.29-3.26l-4.62-.17c-1.54-.05-5.03.12-5.26.12S-9.36.79-9.42 1.25s-1.72 2.52-2.97 3.66-2.63-.06-3.03-.74c-.4-.69.86-2.57 1.2-3.6s.97-2.11 1.03-3.14.85-2.23.74-2.91-1.08-1.32-1.08-1.83 1.42-1.54 2.22-2.97 1.83-3.48 2.52-4.51 2.74-2.29 4.56-4.46c1.83-2.16 5.83-5.42 5.83-5.42s.28 0 .86.23" style="fill-rule:nonzero" transform="matrix(4 0 0 5 525.23 148.02)"/>
  <path d="M0-13.7c-.72.82-.68 2.4-1.14 4.73-.46 2.35-.58 6.37-.97 7.43-.52 1.37 1.08.17 2.62-.18 1.55-.34 4.57-2.62 4.8-3.82s.69-4.97.17-6.05c-.51-1.09-1.26-2.34-2.28-2.34-1.03 0-2.5-.58-3.2.22m-9.43-4.95c.68-.37 2.24-.65 2.24-.65s2.28-.57 2.57-.57c.28 0 1.08.74 1.54.74s1.71-.63 2.45-.63 2.23.29 2.23.29 1.54 1.03 2.17 1.08 3.14-.17 3.82.46c.7.63 2.92 5.2 2.92 6.34s.57 7.36-.23 8.22c-.1.1-3.02 5.7-13.82 8.28-.28.07-2.24.8-2.8.92-1.77.34-3.37-1.1-3.37-1.1l-.8-1.19 2-2.74s1.77-5.6 1.83-7.77 1.16-5.74 1.54-6.22c.91-1.14.17-1.66-.46-1.66-.62 0-4.95.63-5.47.4-.5-.22-1.88-.51-1.77-1.82.12-1.32 2.47-1.88 3.4-2.38" style="fill-rule:nonzero" transform="matrix(4 0 0 5 631.34 136.74)"/>
  <path d="M0-26.02c-1.53.26-3.13 1.4-3.24 2.41-.12 1-.46 2.73-1.18 6.49-.45 2.35-1.29 2.97-1.68 4.7-.18.8-.5 2.35-.78 3.02s-1.17 1.9-1.23 2.74-.62 1.85-.45 3.25.25 1.79.84 2.07c1.56.73 9.29-.06 10.13.28C3.25-.73 4.42.17 5.7.17a3.4 3.4 0 0 0 2.85-1.9c.4-1.07.09-2.16-.67-3.08-1-1.23-3.3-.4-5.65-1.12-1.02-.32-4.3-.06-4.3-.5 0-.45.66-1.02.83-1.96.17-.95 1.96-4.76 2.18-6.88.14-1.28.17-3.87.4-4.82.22-.95.89-2.18 1.06-3.02s.05-1.12-.17-1.57S1-26.17 0-26.01" style="fill-rule:nonzero" transform="matrix(4 0 0 5 734.92 171.74)"/>
  <path d="M0-6.21c-.05-.75.28-2.46.73-3.58.36-.9.93-1.79 1.62-2.02 1.17-.39 2.33.3 3.25.28 2.46-.05 3.66 1.3 5.1 1.38 1.83.1 2.12-.66 2.34-1.66s-.2-3.01-.92-3.3c-.73-.27-1.71-.56-2.5-.84-.78-.28-1.28-1.28-3.35-1s-3.7-.67-4.93-.34c-1.23.34-3.24 1.68-3.75 2.63s-1.95 3.25-2.06 4.81c-.12 1.57-.62 4.53-.74 6.05-.1 1.5-.16 5.03-.33 5.92-.17.9-.11 2.47-.22 2.97s.1 1.29.1 2.13.43 3.27 1.24 3.47c3.02.72 5.37-.68 6.43-.45 1.07.22 6.05.22 6.89-.11.83-.34 2.8-1.29 2.8-1.9 0-.62.13-2.74-1.35-3.03C8.9 4.92 5.6 6.42 3.7 6c-1.23-.28-3.75.1-4.3 0-.58-.12-.57-2.08-.57-2.75s.06-3.35.73-3.4C.22-.23 2.46-.48 2.97.2s2.12.78 2.96.62S8.8.72 9.13 0c.27-.6.6-1.23.21-2.07s-.16-1.4-1.56-1.9-2.8-.56-4.03-.5A4.6 4.6 0 0 1 1-5.33C.74-5.51.03-5.76 0-6.2" style="fill-rule:nonzero" transform="matrix(4 0 0 5 824.9 121.88)"/>
  <path d="M0-27.73c1.12-.08 1.9 1.96 2.13 2.8s.67 3.3.72 4.31c.06 1 1 3.41 1.46 3.86s.67.17 1.34-.05 1.56-2.52 1.9-3.25.36-1.56 1.96-4.2c.78-1.28 1.18-1.84 2.13-2.23.95-.4 1.5-.62 1.96-.62.78 0 1.95 1.06 1.95 1.29s.73 1.34.34 2.01c-.4.67-2.56 3.32-3.3 4.31-.84 1.12-1.68 3.52-2.35 4.42s-2.8 2.57-2.58 3.19c.23.61-.39 3.19-.55 3.86s.39 4.08-.17 4.47C6.38-3.15 5.87-.47 4.7-.2S2.07.08 1.62-.48s-.33-3.7-.17-4.59c.17-.9.79-3.52.79-4.36s-.11-1.56-.56-2.01-2.91-3.59-3.02-4.26c-.12-.67-1.12-4.75-1.12-5.48s.22-3.19.5-4.08.4-2.35 1.96-2.47" style="fill-rule:nonzero" transform="matrix(4 0 0 5 919.32 171.88)"/>
  <path d="M0-33.06c1.24 0 2.74 1.82 2.69 3.16C2.6-28.03-.45-18.74-.73-15.78-1-12.8-1.23-9.05-2-6.81-2.82-4.5-9.46 0-10.97 0c-1.5 0-4.8-1.79-5.37-1.73-.56.05-.78-.17-1.06-.56-.28-.4-3.02-3.2-3.19-3.97-.17-.79-.61-.84-.73-1.51-.11-.68.9-2.46.9-2.97 0-.5.56-3.41 1.34-4.14s2.63-1.68 3.53-.73c.9.96 1.34 2.74 1.28 4.03-.05 1.29-.79 3.36 0 4.37.79 1 1.46 1.45 3.08.95s3.63-2.4 3.8-3.25c.17-.84.79-5.42.79-6.54s1.34-8.12 1.34-8.96.56-2.35 1.17-3.63c.62-1.29 1.12-3.25 1.9-3.8.79-.57 1.3-.62 2.19-.62" style="fill-rule:nonzero" transform="matrix(4 0 0 5 1137.5 194.56)"/>
  <path d="M.26-4.42c-.62 1-1.57 1.72-1.4 4.1.1 1.37 1.99 3.3 3.75 4 1.47.6 4.19.82 4.73.66.55-.16 3.6-1.14 4.68-2.87.84-1.34 2.52-2.29 2.34-3.74-.44-3.57-6.05-4.13-6.7-4.65-.91-.76-1.67 1.8-3.4 1.01-2.62-1.2-3.48.64-4 1.5M-2.5-9.96c.69-.66 1.69-1.46 2.23-1.79.54-.32.97-1.24 2.01-1.46.85-.18 3.42-.38 3.64.17.22.54.17.7 1.04.86s3.97-.22 4.84.27c.87.48 2.29 1.57 3.38 2.05 1.08.5 3.42 3.25 3.42 3.8s.65 2.44.7 3.14c.06.7.17 4-.48 4.55-.56.47-3.9 4.4-4.79 5.09-.76.6-3.97 1.67-4.95 2-.97.32-4.94.1-5.81.21-.88.12-3-.59-4.2-1.4-1.19-.81-4.02-3.41-4.35-4-.32-.6-1.2-2.77-1.2-3.36 0-.6.22-1.8.34-2.6.1-.82 1.3-4.39 1.95-5.04.66-.65 1.5-1.78 2.23-2.5" style="fill-rule:nonzero" transform="matrix(4 0 0 5 1193.46 124.3)"/>
  <path d="M0-26.46c1.18.04 1.57 1.68 1 3.97-.27 1.15-2.18 6.77-2 7.27.16.5 2 .23 2.8.23.78 0 2.68.28 2.96-.06s.05-2.86.5-4.31 2.35-5.03 3.53-5.98c.5-.4 1.45-1.01 2.51-1.07.62-.03 2.47 1.4 2.02 2.07-.96 1.44-1.8 2.58-2.19 4.48-.24 1.16-1 3.58-1 4.3 0 .73.39 1.96.39 2.91s.28 3.14 0 4.48-.5 4.53-1.4 5.37S6.72-1.34 6-1.68c-.42-.2-1.2-1.9-.84-3.7.22-1.1 0-4.13-.45-4.24S2.07-9.85 1-9.68c-1.05.17-2.79.22-3.18.67s-.22 1.57-.34 2.75c-.1 1.17-1.14 4.36-1.96 5.08-1.4 1.24-3.97.56-4.3-.72-.19-.71.67-2.97.67-4.53 0-1.57-.12-4.1.28-5.1.39-1 .9-4.58 1.73-6.43.84-1.85 1.12-6.04 2.01-6.49.9-.45 2.3-2.07 4.09-2.01" style="fill-rule:nonzero" transform="matrix(4 0 0 5 1322.2 184.73)"/>
  <path d="M0-23.77c1.54-.28 4.37.21 4.84.4 1.62.68 2.2 1.98 2.49 3.18a67 67 0 0 1 1.17 8.61c0 1.4-.56 3.14 0 3.75.98 1.08 2.07.79 2.91.67.84-.1 2.39-1.73 2.46-3.07.17-2.97 1.07-4.43.9-5.77s-.63-3.73-.33-4.53c.38-1.06 1.6-1.8 2.29-2.57.5-.58 1.5-1.18 2.35-1.01.84.17 1.13.54 1.68 1.51 1.23 2.18.41 2.24.1 6.77-.16 2.46-1.69 4-2.51 6.1-.62 1.56-.23 3.75-1.34 4.7-1.12.95-1.18 2.18-6 3.47-1.83.49-3.69-.56-4.97-1.29A7 7 0 0 1 3.36-6.2c-.62-2.23-.29-9.04-.29-10.68q-.01-.53-.23-.83c-.48-.64-1.54-.59-2.17-.63-1.9-.1-2.24 2.35-2.46 4.25-.1.78-.28 2.8-.5 3.8-.23 1.02-.6 4.27-1.02 5.04-.94 1.8-.72 2.97-1.17 4.37C-4.9.4-7.61.56-8.45.23c-.84-.34-1.07-2.07-1.07-3.14 0-1 1.21-4.98 1.24-5.93.05-2.12 1.62-5.98 1.73-7.05s.36-3.91 1.96-5.93c.7-.88 2.56-1.59 4.59-1.95" style="fill-rule:nonzero" transform="matrix(4 0 0 5 1428.55 170.9)"/>
  <path d="M0-27.41c-2.33.37-4.59 1.79-5.43 2.29s-2.24 1.4-2.57 1.79c-.34.4-3.13 4.2-2.97 6.77.17 2.57 2.8 5.04 3.75 5.76.95.73 1.74 1.62 1.57 2.69s-2.46 2.57-3.47 2.68c-1 .12-4.59.17-4.93.9s-1.4 1.9-1 2.57S-13.26.22-11.81.11c1.46-.1 5.32-.73 6.72-1.34s3.86-1.96 4.14-3.13c.28-1.18 1.4-2.3 1.4-3.25s.39-1.45-.4-3.24c-.68-1.58-.44-2.02-2.18-3.64-.42-.4-3.23-1.25-2.9-2.85.33-1.68 3.8-4.03 3.8-4.03s1.34-1.01 2.52-1.01c.85 0 2.07.5 3.07.84s1.96.9 2.52.22c.4-.48.5-2.68-.11-3.63-.62-.95-2.13-1.96-2.85-2.35-.6-.32-2.52-.34-3.92-.11" style="fill-rule:nonzero" transform="matrix(4 0 0 5 1581.2 199.36)"/>
  <path d="M0-6.37c-.43.34-1.68.77-2.02 1.54-.17.4-.14 3.02.25 3.98C-1.48-.1.22.6.9 1.02c.77.48 2.7.58 3.94-.28.69-.48 1.63-2.26 2.3-2.93.61-.62.15-2.12-.38-2.36-.7-.32-2.11-1.24-2.11-1.72s.02-1.9-1.92-1.59C1.24-7.62.44-6.71 0-6.37M2.07-13c1.5-.06 3.9-.02 4.5.15 1.02.28 2.36 2.25 3.08 3.22.68.9 2.88 1.77 2.88 2.5 0 .71.3 1.62.34 1.91.04.3.33 1.63.19 2.07S11.04-.13 10.46.83c-.37.64-.66 2.79-1.2 3.12-.52.34-2.7 2.15-3.83 2.36-2.12.38-4.18-.2-5.33-.34a18 18 0 0 1-5.05-1.63C-5.62 3.9-7.2 1.46-7.45.78-7.67.11-8.4-2.24-8.4-3.1c0-.86.72-3.4 1.2-3.74s1.44-2.74 1.87-2.98 2.55-1.8 3.46-1.92c1.48-.2 2.74-1.2 3.94-1.25" style="fill-rule:nonzero" transform="matrix(4 0 0 5 1653.63 147.5)"/>
  <path d="M0-23.54c3.07.04 5.66 1.39 6.58 3.64.38.94 2.42 2.83 3.16 6.49.32 1.6 1.84 4.25 2.27 4.46.95.48 1.43.05 1.63-.43s.49-5.48.67-6.67c.23-1.5 1.1-5.23 1.67-6.05.58-.82 2.57-2.8 3.66-2.7 1.91.2 2.07 2.55 1.92 2.98a9 9 0 0 0-.34 1.54c0 .2 0 1.3-.15 1.68-.14.39-.8 1.01-.9 1.59-.1.57-.29 3.21-.48 4.08-.2.86-.86 3.4-.86 4.22s-.54 3.07-1.69 4.08a6.3 6.3 0 0 1-3.89 1.64c-1.24 0-4.62-1.78-5.61-2.4C5.8-6.55 4.7-9.86 4.27-11.11s-2.01-4.9-2.5-5.47c-.47-.58-1.58-1.2-2.25-.96-.68.24-.62.48-.86 1.4-.24.9-.58 4.4-.72 5.7s-.3 7.15-.58 8.16c-.29 1-.58 1.97-1.78 2.6C-5.17.7-6.7 1.35-7.76.5c-.99-.82.27-3.65.22-4.56s-.2-5.65-.1-7.14c.07-.87 1.02-3.65 1.06-4.47s-.1-3.4.48-4.46 1.1-1.97 2.16-2.5A8 8 0 0 1 0-23.54" style="fill-rule:nonzero" transform="matrix(4 0 0 5 1757.37 195.56)"/>
</svg>