<?xml version="1.0" encoding="UTF-8" standalone="no"?>
<!DOCTYPE svg PUBLIC "-//W3C//DTD SVG 1.1//EN" "http://www.w3.org/Graphics/SVG/1.1/DTD/svg11.dtd">
<svg width="100%" height="100%" viewBox="0 0 1925 225" version="1.1" xmlns="http://www.w3.org/2000/svg" xmlns:xlink="http://www.w3.org/1999/xlink" xml:space="preserve" xmlns:serif="http://www.serif.com/" style="fill-rule:evenodd;clip-rule:evenodd;stroke-linejoin:round;stroke-miterlimit:2;">
    <rect id="Artboard1" x="0" y="0" width="1925" height="225" style="fill:none;"/>
    <g id="Artboard11" serif:id="Artboard1">
        <g id="Layer-1" serif:id="Layer 1" transform="matrix(4.16667,0,0,4.16667,-717.976,-1150)">
            <g transform="matrix(1,0,0,1.15635,201.25,322.93)">
                <path d="M0,-30.099C-0.967,-30.055 -2.157,-28.196 -2.25,-27.613C-2.466,-26.252 -3.904,-9.027 -4.342,-7.758C-4.782,-6.49 -6.537,-5.077 -7.27,-4.978C-8,-4.879 -9.903,-5.517 -10.343,-6.588C-10.78,-7.66 -10.614,-9.291 -10.635,-9.759C-10.681,-10.787 -12.292,-13.855 -13.854,-13.855C-15.415,-13.855 -16.86,-11.465 -16.929,-9.661C-17.074,-5.902 -14.829,-3.808 -13.124,-2.539C-11.415,-1.271 -9.515,0.146 -7.661,-0.002C-5.807,-0.15 -2.978,-1.371 -1.903,-2.979C-0.831,-4.587 1.804,-11.462 1.804,-13.221C1.804,-14.979 3.267,-26.392 3.073,-26.88C2.876,-27.368 2.481,-30.213 0,-30.099Z" style="fill-rule:nonzero;"/>
            </g>
            <g transform="matrix(1,0,0,1.15635,231.882,291.238)">
                <path d="M0,20.437C0,20.437 4.046,20.633 5.413,20.098C6.777,19.562 8.689,17.685 6.583,15.217C5.755,14.245 0.582,15.07 0.582,15.07C0.681,17.216 0,20.437 0,20.437M-5.459,-5.394C-4.37,-6.199 -0.927,-6.586 0.145,-6.879C1.219,-7.171 4.243,-7.073 5.949,-7.073C7.658,-7.073 9.899,-5.464 10.682,-4.83C11.461,-4.195 15.023,-1.219 15.51,1.219C15.999,3.658 14.73,6.975 14.195,8.683C13.659,10.392 10.241,12.634 10.241,12.634C10.241,12.634 12.778,14.485 12.243,18.389C12.002,20.126 9.294,23.081 7.947,23.753C5.019,25.215 -1.173,25.169 -1.173,25.169L-2.685,26.388C-2.685,26.388 -5.028,27.608 -5.952,25.461C-6.366,24.5 -7.073,22.924 -7.073,22.924L-5.465,22.537C-5.465,22.537 -5.318,20.193 -5.318,19.023C-5.318,17.853 -4.634,15.51 -4.634,15.51L-5.61,14.925L-4.634,13.998C-4.634,13.998 -3.221,8.877 -3.027,7.316C-2.833,5.755 0.243,1.316 1.706,1.121C3.171,0.925 3.606,2.291 3.606,3.949C3.606,5.607 1.706,9.952 1.706,9.952C1.706,9.952 3.803,9.998 5.314,9.413C6.827,8.828 10.291,6.633 10.78,5.999C11.267,5.364 11.168,3.267 10.875,2.634C10.583,2.001 6.097,-2.292 4.046,-2.391C1.999,-2.489 -0.148,-2 -1.22,-1.61C-2.294,-1.221 -3.661,1.267 -4.684,1.267C-5.709,1.267 -5.713,-0.807 -6.393,-2.049C-6.773,-2.744 -6.367,-4.724 -5.459,-5.394Z" style="fill-rule:nonzero;"/>
            </g>
            <g transform="matrix(1,0,0,1.15635,262.794,313.635)">
                <path d="M0,-15.703C0,-15.703 0.4,-12.794 0.229,-11.25C0.058,-9.706 -0.409,-9.095 0.229,-8.452C0.571,-8.107 4.113,-8.678 5.483,-8.965C8.559,-9.608 8.842,-12.113 8.967,-13.648C9.08,-15.075 8.976,-16.988 7.368,-17.416C4.799,-18.101 0.857,-15.532 0,-15.703M-8.506,-21.128C-8.506,-21.128 -5.138,-21.699 -1.199,-21.243C1.714,-20.905 2.856,-22.269 2.856,-22.269C2.856,-22.269 3.484,-22.327 4.055,-22.327C4.625,-22.327 6.824,-22.453 7.797,-22.168C8.767,-21.882 12.162,-21.072 12.335,-19.929C12.506,-18.786 12.906,-15.531 13.248,-15.075C13.592,-14.619 13.647,-13.248 13.647,-12.849C13.647,-12.449 12.677,-10.792 12.677,-10.335C12.677,-9.877 13.135,-9.365 12.22,-7.995C11.458,-6.85 8.052,-5.255 8.052,-4.626C8.052,-3.998 8.967,-2.744 8.967,-2.228C8.967,-1.713 8.796,-0.629 9.367,-0.001C9.938,0.628 14.45,2.11 14.905,2.797C15.362,3.484 16.39,4.911 15.933,5.711C15.475,6.51 12.677,7.367 11.594,7.31C10.508,7.252 8.167,5.595 7.481,5.025C6.798,4.454 4.967,3.142 4.567,1.943C4.243,0.967 3.655,-1.657 3.255,-2.228C2.856,-2.799 0.116,-3.598 -0.455,-3.369C-1.028,-3.14 -1.083,-1.144 -1.825,0.17C-2.569,1.485 -2.911,3.31 -3.481,4.283C-4.052,5.256 -6.737,7.31 -7.365,7.481C-7.994,7.651 -9.306,6.566 -9.364,5.994C-9.422,5.424 -9.879,4.344 -9.535,3.771C-9.193,3.197 -7.536,0.74 -6.85,-1.312C-6.615,-2.016 -5.822,-6.905 -5.651,-7.879C-5.48,-8.852 -5.251,-11.992 -5.251,-12.962C-5.251,-13.932 -5.596,-16.045 -6.167,-16.103C-8.318,-16.322 -8.564,-17.328 -8.564,-17.758C-8.564,-18.158 -9.309,-19.072 -9.135,-19.757C-8.964,-20.442 -9.193,-20.557 -8.506,-21.128" style="fill-rule:nonzero;"/>
            </g>
            <g transform="matrix(1,0,0,1.15635,298.37,311.525)">
                <path d="M0,-17.647C0,-17.647 -0.628,-15.819 -1.827,-14.62C-3.026,-13.421 -6.111,-10.053 -6.111,-10.053C-6.111,-10.053 -2.853,-9.88 -1.028,-9.653C0.8,-9.425 2.111,-9.539 2.111,-10.053C2.111,-10.567 1.95,-12.284 1.266,-13.426C0.58,-14.569 0,-17.647 0,-17.647M2.456,-24.441C3.027,-24.213 3.14,-22.214 3.311,-21.814C3.481,-21.415 5.083,-16.562 5.367,-15.534C5.654,-14.506 6.998,-11.329 7.056,-9.102C7.114,-6.875 6.795,-2.801 6.282,-1.602C5.767,-0.404 6.337,1.881 6.337,3.139C6.337,4.396 3.769,6.565 3.14,6.794C2.511,7.023 2.111,6.394 1.541,5.766C0.971,5.137 0.913,2.797 0.913,1.824C0.913,0.851 1.828,-0.575 1.828,-1.602C1.828,-2.63 1.541,-4.855 1.541,-4.855C1.541,-4.855 -1.541,-4.971 -3.084,-5.026C-4.625,-5.081 -8.109,-4.913 -8.338,-4.913C-8.567,-4.913 -9.364,0.798 -9.422,1.253C-9.479,1.708 -11.136,3.767 -12.391,4.909C-13.647,6.049 -15.018,4.85 -15.417,4.167C-15.817,3.484 -14.563,1.598 -14.218,0.57C-13.876,-0.459 -13.248,-1.544 -13.19,-2.573C-13.132,-3.601 -12.335,-4.8 -12.448,-5.484C-12.564,-6.168 -13.534,-6.798 -13.534,-7.311C-13.534,-7.824 -12.106,-8.852 -11.307,-10.28C-10.508,-11.708 -9.479,-13.764 -8.793,-14.791C-8.109,-15.818 -6.053,-17.076 -4.226,-19.246C-2.401,-21.415 1.599,-24.67 1.599,-24.67C1.599,-24.67 1.883,-24.67 2.456,-24.441" style="fill-rule:nonzero;"/>
            </g>
            <g transform="matrix(1,0,0,1.15635,323.835,308.817)">
                <path d="M0,-13.705C-0.723,-12.877 -0.684,-11.307 -1.141,-8.965C-1.599,-6.623 -1.718,-2.601 -2.114,-1.543C-2.627,-0.174 -1.028,-1.37 0.513,-1.715C2.057,-2.059 5.08,-4.341 5.309,-5.54C5.538,-6.739 5.996,-10.508 5.483,-11.592C4.967,-12.677 4.223,-13.934 3.197,-13.934C2.169,-13.934 0.703,-14.51 0,-13.705ZM-9.433,-18.652C-8.749,-19.02 -7.194,-19.301 -7.194,-19.301C-7.194,-19.301 -4.912,-19.872 -4.625,-19.872C-4.339,-19.872 -3.542,-19.13 -3.084,-19.13C-2.627,-19.13 -1.37,-19.759 -0.628,-19.759C0.113,-19.759 1.599,-19.472 1.599,-19.472C1.599,-19.472 3.143,-18.444 3.768,-18.387C4.396,-18.33 6.911,-18.559 7.594,-17.931C8.281,-17.303 10.508,-12.735 10.508,-11.592C10.508,-10.45 11.079,-4.226 10.279,-3.371C10.178,-3.264 7.264,2.323 -3.539,4.909C-3.823,4.977 -5.775,5.718 -6.337,5.825C-8.11,6.167 -9.708,4.738 -9.708,4.738L-10.508,3.54L-8.51,0.8C-8.51,0.8 -6.74,-4.799 -6.682,-6.967C-6.624,-9.136 -5.523,-12.712 -5.138,-13.191C-4.226,-14.334 -4.967,-14.846 -5.596,-14.846C-6.224,-14.846 -10.553,-14.218 -11.066,-14.445C-11.579,-14.673 -12.952,-14.961 -12.835,-16.273C-12.723,-17.585 -10.373,-18.148 -9.433,-18.652Z" style="fill-rule:nonzero;"/>
            </g>
            <g transform="matrix(1,0,0,1.15635,348.694,317.218)">
                <path d="M0,-26.017C-1.526,-25.762 -3.131,-24.617 -3.244,-23.61C-3.357,-22.604 -3.702,-20.883 -4.42,-17.121C-4.866,-14.771 -5.706,-14.155 -6.097,-12.42C-6.276,-11.627 -6.601,-10.072 -6.882,-9.4C-7.16,-8.727 -8.055,-7.499 -8.113,-6.66C-8.168,-5.82 -8.727,-4.812 -8.559,-3.413C-8.391,-2.014 -8.315,-1.622 -7.722,-1.345C-6.155,-0.615 1.567,-1.4 2.407,-1.064C3.247,-0.728 4.423,0.168 5.708,0.168C6.995,0.168 8.252,-0.896 8.562,-1.736C8.953,-2.798 8.646,-3.89 7.89,-4.812C6.882,-6.042 4.588,-5.205 2.239,-5.932C1.222,-6.248 -2.068,-5.985 -2.068,-6.433C-2.068,-6.882 -1.399,-7.445 -1.231,-8.394C-1.063,-9.344 0.727,-13.15 0.953,-15.275C1.086,-16.553 1.118,-19.136 1.344,-20.087C1.567,-21.038 2.239,-22.268 2.407,-23.108C2.575,-23.948 2.462,-24.227 2.239,-24.675C2.016,-25.122 1.008,-26.185 0,-26.017" style="fill-rule:nonzero;"/>
            </g>
            <g transform="matrix(1,0,0,1.15635,370.292,305.25)">
                <path d="M0,-6.21C-0.047,-6.956 0.281,-8.672 0.727,-9.792C1.089,-10.698 1.66,-11.576 2.349,-11.806C3.525,-12.197 4.683,-11.506 5.596,-11.526C8.058,-11.582 9.259,-10.231 10.708,-10.148C12.532,-10.042 12.816,-10.814 13.037,-11.806C13.259,-12.813 12.846,-14.823 12.118,-15.104C11.388,-15.384 10.407,-15.667 9.625,-15.946C8.839,-16.226 8.335,-17.232 6.265,-16.953C4.194,-16.673 2.575,-17.623 1.344,-17.289C0.113,-16.954 -1.903,-15.609 -2.407,-14.659C-2.911,-13.709 -4.362,-11.415 -4.475,-9.848C-4.588,-8.281 -5.092,-5.315 -5.205,-3.805C-5.315,-2.295 -5.37,1.226 -5.538,2.124C-5.706,3.022 -5.651,4.586 -5.764,5.09C-5.874,5.594 -5.651,6.376 -5.651,7.216C-5.651,8.05 -5.228,10.492 -4.42,10.686C-1.399,11.413 0.95,10.011 2.013,10.237C3.076,10.462 8.058,10.462 8.895,10.126C9.734,9.79 11.692,8.843 11.692,8.224C11.692,7.61 11.832,5.49 10.352,5.203C8.895,4.922 5.599,6.416 3.693,5.985C2.462,5.707 -0.058,6.095 -0.617,5.985C-1.19,5.872 -1.176,3.914 -1.176,3.242C-1.176,2.57 -1.118,-0.109 -0.449,-0.167C0.223,-0.225 2.462,-0.472 2.966,0.2C3.467,0.872 5.092,0.985 5.932,0.817C6.769,0.649 8.785,0.728 9.121,0.001C9.398,-0.604 9.734,-1.23 9.343,-2.07C8.953,-2.91 9.175,-3.469 7.777,-3.973C6.377,-4.477 4.979,-4.532 3.748,-4.477C2.618,-4.426 1.512,-4.923 1.008,-5.315C0.744,-5.521 0.028,-5.762 0,-6.21Z" style="fill-rule:nonzero;"/>
            </g>
            <g transform="matrix(1,0,0,1.15635,392.95,317.252)">
                <path d="M0,-27.726C1.115,-27.806 1.903,-25.767 2.126,-24.928C2.349,-24.09 2.795,-21.626 2.853,-20.62C2.908,-19.613 3.858,-17.208 4.307,-16.76C4.756,-16.313 4.979,-16.591 5.651,-16.815C6.32,-17.04 7.215,-19.334 7.551,-20.06C7.887,-20.788 7.907,-21.622 9.512,-24.258C10.294,-25.543 10.685,-26.102 11.638,-26.495C12.591,-26.888 13.141,-27.11 13.596,-27.11C14.381,-27.11 15.554,-26.047 15.554,-25.823C15.554,-25.599 16.28,-24.48 15.89,-23.809C15.499,-23.137 13.326,-20.485 12.588,-19.5C11.748,-18.381 10.911,-15.976 10.239,-15.08C9.567,-14.185 7.441,-12.51 7.664,-11.893C7.887,-11.276 7.273,-8.704 7.105,-8.032C6.937,-7.36 7.496,-3.945 6.937,-3.555C6.378,-3.163 5.874,-0.476 4.698,-0.197C3.525,0.08 2.068,0.08 1.622,-0.478C1.173,-1.037 1.286,-4.171 1.454,-5.066C1.622,-5.961 2.236,-8.594 2.236,-9.431C2.236,-10.268 2.126,-10.995 1.677,-11.444C1.231,-11.893 -1.233,-15.027 -1.344,-15.697C-1.457,-16.368 -2.461,-20.453 -2.461,-21.18C-2.461,-21.907 -2.238,-24.369 -1.96,-25.264C-1.68,-26.159 -1.566,-27.614 0,-27.726" style="fill-rule:nonzero;"/>
            </g>
            <g transform="matrix(1,0,0,1.15635,445.313,322.695)">
                <path d="M0,-33.062C1.237,-33.061 2.742,-31.241 2.687,-29.899C2.612,-28.034 -0.449,-18.741 -0.729,-15.775C-1.011,-12.809 -1.233,-9.061 -2.013,-6.823C-2.821,-4.502 -9.456,0.001 -10.966,0.001C-12.475,0.001 -15.779,-1.786 -16.338,-1.731C-16.897,-1.675 -17.12,-1.896 -17.401,-2.29C-17.683,-2.684 -20.422,-5.482 -20.59,-6.263C-20.758,-7.045 -21.204,-7.101 -21.317,-7.773C-21.43,-8.445 -20.425,-10.235 -20.425,-10.739C-20.425,-11.243 -19.86,-14.153 -19.078,-14.88C-18.296,-15.607 -16.448,-16.56 -15.554,-15.607C-14.658,-14.654 -14.215,-12.865 -14.271,-11.579C-14.325,-10.292 -15.056,-8.221 -14.271,-7.213C-13.485,-6.206 -12.813,-5.759 -11.191,-6.263C-9.569,-6.767 -7.557,-8.667 -7.389,-9.507C-7.221,-10.347 -6.601,-14.932 -6.601,-16.053C-6.601,-17.174 -5.263,-24.166 -5.263,-25.006C-5.263,-25.846 -4.7,-27.357 -4.087,-28.644C-3.473,-29.93 -2.966,-31.889 -2.184,-32.448C-1.401,-33.007 -0.889,-33.063 0,-33.062" style="fill-rule:nonzero;"/>
            </g>
            <g transform="matrix(1,0,0,1.15635,458.744,305.834)">
                <path d="M0.256,-4.417C-0.359,-3.415 -1.307,-2.703 -1.142,-0.322C-1.046,1.054 0.846,2.972 2.612,3.686C4.081,4.28 6.798,4.501 7.345,4.339C7.89,4.176 10.934,3.2 12.02,1.468C12.859,0.127 14.542,-0.817 14.363,-2.271C13.923,-5.844 8.31,-6.401 7.669,-6.925C6.745,-7.684 5.986,-5.123 4.256,-5.91C1.644,-7.102 0.782,-5.274 0.256,-4.417ZM-2.497,-9.964C-1.811,-10.622 -0.814,-11.42 -0.272,-11.747C0.272,-12.071 0.703,-12.987 1.74,-13.208C2.592,-13.389 5.164,-13.588 5.384,-13.045C5.604,-12.502 5.552,-12.346 6.424,-12.184C7.293,-12.022 10.392,-12.401 11.264,-11.913C12.133,-11.425 13.549,-10.343 14.635,-9.855C15.724,-9.367 18.062,-6.61 18.062,-6.065C18.062,-5.521 18.713,-3.624 18.766,-2.92C18.82,-2.216 18.931,1.086 18.278,1.627C17.717,2.097 14.371,6.024 13.494,6.717C12.732,7.312 9.521,8.394 8.544,8.721C7.565,9.045 3.6,8.825 2.726,8.935C1.854,9.045 -0.267,8.341 -1.463,7.527C-2.659,6.717 -5.488,4.118 -5.816,3.521C-6.144,2.925 -7.013,0.759 -7.013,0.165C-7.013,-0.432 -6.795,-1.622 -6.685,-2.436C-6.575,-3.247 -5.376,-6.82 -4.727,-7.472C-4.075,-8.122 -3.239,-9.251 -2.497,-9.964Z" style="fill-rule:nonzero;"/>
            </g>
            <g transform="matrix(1,0,0,1.15635,489.644,320.336)">
                <path d="M0,-26.463C1.183,-26.425 1.567,-24.785 1.009,-22.492C0.728,-21.339 -1.176,-15.722 -1.008,-15.218C-0.84,-14.714 1.006,-14.995 1.791,-14.995C2.575,-14.995 4.476,-14.714 4.756,-15.05C5.037,-15.386 4.814,-17.906 5.26,-19.36C5.706,-20.814 7.609,-24.394 8.785,-25.345C9.283,-25.748 10.239,-26.352 11.302,-26.408C11.922,-26.442 13.767,-25.011 13.318,-24.338C12.359,-22.903 11.528,-21.764 11.134,-19.861C10.894,-18.699 10.129,-16.281 10.129,-15.554C10.129,-14.827 10.52,-13.599 10.52,-12.646C10.52,-11.693 10.801,-9.509 10.52,-8.169C10.239,-6.828 10.016,-3.638 9.121,-2.798C8.227,-1.959 6.714,-1.341 5.987,-1.677C5.567,-1.872 4.794,-3.589 5.15,-5.371C5.373,-6.489 5.15,-9.509 4.701,-9.623C4.252,-9.735 2.071,-9.845 1.009,-9.677C-0.055,-9.509 -1.789,-9.455 -2.181,-9.008C-2.571,-8.562 -2.403,-7.438 -2.517,-6.265C-2.629,-5.092 -3.663,-1.898 -4.478,-1.176C-5.873,0.057 -8.448,-0.615 -8.784,-1.904C-8.967,-2.61 -8.112,-4.867 -8.112,-6.433C-8.112,-8.001 -8.225,-10.523 -7.834,-11.528C-7.443,-12.533 -6.939,-16.113 -6.1,-17.961C-5.26,-19.807 -4.981,-24.003 -4.086,-24.45C-3.191,-24.898 -1.789,-26.52 0,-26.463" style="fill-rule:nonzero;"/>
            </g>
            <g transform="matrix(1,0,0,1.15635,515.165,317.017)">
                <path d="M0,-23.774C1.543,-24.054 4.372,-23.555 4.835,-23.364C6.464,-22.695 7.044,-21.39 7.33,-20.193C7.773,-18.348 8.501,-12.977 8.501,-11.578C8.501,-10.175 7.941,-8.444 8.501,-7.83C9.479,-6.747 10.574,-7.042 11.414,-7.158C12.254,-7.268 13.798,-8.89 13.873,-10.234C14.038,-13.202 14.937,-14.656 14.769,-15.999C14.601,-17.343 14.143,-19.728 14.436,-20.529C14.823,-21.593 16.046,-22.326 16.729,-23.102C17.239,-23.682 18.238,-24.278 19.078,-24.11C19.918,-23.942 20.205,-23.574 20.755,-22.6C21.986,-20.419 21.175,-20.361 20.865,-15.831C20.697,-13.37 19.174,-11.827 18.349,-9.73C17.731,-8.166 18.125,-5.982 17.007,-5.032C15.89,-4.082 15.831,-2.848 11.018,-1.562C9.179,-1.07 7.324,-2.124 6.038,-2.848C4.828,-3.532 3.626,-5.24 3.356,-6.208C2.737,-8.444 3.073,-15.247 3.073,-16.894C3.073,-17.255 2.983,-17.523 2.835,-17.724C2.363,-18.362 1.301,-18.31 0.669,-18.348C-1.234,-18.459 -1.57,-15.999 -1.793,-14.097C-1.886,-13.318 -2.071,-11.299 -2.297,-10.292C-2.522,-9.284 -2.894,-6.028 -3.305,-5.257C-4.255,-3.462 -4.032,-2.292 -4.481,-0.89C-4.896,0.396 -7.614,0.558 -8.452,0.228C-9.289,-0.108 -9.515,-1.84 -9.515,-2.906C-9.515,-3.914 -8.31,-7.887 -8.284,-8.837C-8.229,-10.963 -6.662,-14.824 -6.549,-15.886C-6.436,-16.949 -6.187,-19.8 -4.591,-21.816C-3.892,-22.699 -2.031,-23.405 0,-23.774Z" style="fill-rule:nonzero;"/>
            </g>
            <g transform="matrix(1,0,0,1.15635,551.804,323.845)">
                <path d="M0,-27.415C-2.335,-27.043 -4.588,-25.625 -5.428,-25.121C-6.268,-24.617 -7.667,-23.721 -8.003,-23.33C-8.339,-22.939 -11.131,-19.136 -10.966,-16.561C-10.801,-13.986 -8.168,-11.524 -7.218,-10.798C-6.268,-10.07 -5.483,-9.176 -5.651,-8.112C-5.819,-7.05 -8.112,-5.541 -9.121,-5.428C-10.129,-5.314 -13.708,-5.257 -14.045,-4.529C-14.381,-3.803 -15.446,-2.63 -15.053,-1.958C-14.658,-1.286 -13.263,0.223 -11.806,0.113C-10.349,0.003 -6.491,-0.617 -5.092,-1.23C-3.693,-1.845 -1.234,-3.188 -0.953,-4.364C-0.672,-5.541 0.446,-6.658 0.446,-7.608C0.446,-8.559 0.837,-9.062 0.055,-10.852C-0.635,-12.434 -0.392,-12.868 -2.126,-14.49C-2.546,-14.884 -5.358,-15.744 -5.037,-17.343C-4.701,-19.02 -1.231,-21.372 -1.231,-21.372C-1.231,-21.372 0.11,-22.38 1.286,-22.38C2.141,-22.38 3.356,-21.876 4.362,-21.54C5.367,-21.204 6.322,-20.645 6.882,-21.317C7.281,-21.798 7.383,-24.003 6.769,-24.953C6.154,-25.903 4.643,-26.911 3.916,-27.302C3.325,-27.621 1.398,-27.638 0,-27.415" style="fill-rule:nonzero;"/>
            </g>
            <g transform="matrix(1,0,0,1.15635,569.185,311.399)">
                <path d="M0,-6.371C-0.432,-6.035 -1.68,-5.603 -2.016,-4.833C-2.192,-4.428 -2.161,-1.809 -1.775,-0.848C-1.48,-0.112 0.22,0.589 0.912,1.024C1.68,1.504 3.601,1.603 4.849,0.736C5.538,0.259 6.482,-1.522 7.154,-2.194C7.765,-2.806 7.299,-4.306 6.771,-4.546C6.067,-4.868 4.657,-5.792 4.657,-6.272C4.657,-6.753 4.681,-8.172 2.737,-7.86C1.248,-7.619 0.432,-6.707 0,-6.371M2.065,-12.998C3.565,-13.06 5.976,-13.024 6.577,-12.853C7.586,-12.566 8.93,-10.597 9.65,-9.635C10.334,-8.725 12.532,-7.86 12.532,-7.139C12.532,-6.417 12.822,-5.508 12.868,-5.219C12.915,-4.929 13.201,-3.585 13.06,-3.153C12.918,-2.722 11.044,-0.129 10.468,0.832C10.085,1.47 9.798,3.615 9.269,3.951C8.738,4.287 6.561,6.101 5.425,6.307C3.313,6.689 1.248,6.115 0.096,5.971C-1.619,5.756 -4.275,4.769 -4.947,4.337C-5.619,3.905 -7.203,1.455 -7.443,0.783C-7.685,0.111 -8.402,-2.244 -8.402,-3.106C-8.402,-3.97 -7.685,-6.516 -7.203,-6.851C-6.723,-7.188 -5.761,-9.589 -5.329,-9.829C-4.897,-10.07 -2.777,-11.631 -1.874,-11.749C-0.386,-11.943 0.866,-12.949 2.065,-12.998" style="fill-rule:nonzero;"/>
            </g>
            <g transform="matrix(1,0,0,1.15635,594.082,322.935)">
                <path d="M0,-23.543C3.072,-23.495 5.656,-22.151 6.58,-19.895C6.965,-18.957 9.004,-17.065 9.737,-13.414C10.059,-11.814 11.576,-9.165 12.008,-8.947C12.955,-8.466 13.444,-8.898 13.639,-9.378C13.832,-9.859 14.128,-14.858 14.311,-16.051C14.539,-17.541 15.405,-21.285 15.981,-22.104C16.558,-22.92 18.551,-24.901 19.643,-24.792C21.551,-24.6 21.708,-22.247 21.563,-21.815C21.418,-21.384 21.215,-20.469 21.215,-20.277C21.215,-20.086 21.215,-18.98 21.07,-18.598C20.926,-18.215 20.266,-17.589 20.17,-17.013C20.074,-16.437 19.88,-13.798 19.688,-12.932C19.498,-12.066 18.826,-9.523 18.826,-8.707C18.826,-7.89 18.293,-5.636 17.143,-4.626C15.993,-3.615 14.502,-2.992 13.253,-2.992C12.005,-2.992 8.628,-4.767 7.637,-5.393C5.813,-6.545 4.706,-9.859 4.274,-11.108C3.843,-12.356 2.259,-16.005 1.777,-16.582C1.297,-17.158 0.193,-17.781 -0.481,-17.541C-1.156,-17.3 -1.102,-17.06 -1.342,-16.147C-1.582,-15.235 -1.918,-11.733 -2.063,-10.436C-2.207,-9.138 -2.353,-3.288 -2.639,-2.28C-2.926,-1.272 -3.225,-0.313 -4.42,0.313C-5.174,0.707 -6.705,1.358 -7.757,0.496C-8.747,-0.319 -7.493,-3.146 -7.543,-4.058C-7.592,-4.97 -7.733,-9.714 -7.633,-11.204C-7.571,-12.075 -6.621,-14.853 -6.575,-15.669C-6.529,-16.486 -6.677,-19.079 -6.101,-20.133C-5.523,-21.187 -4.994,-22.102 -3.937,-22.631C-2.879,-23.159 -1.681,-23.569 0,-23.543" style="fill-rule:nonzero;"/>
            </g>
        </g>
    </g>
</svg>
