<?xml version="1.0" encoding="UTF-8" standalone="no"?>
<!DOCTYPE svg PUBLIC "-//W3C//DTD SVG 1.1//EN" "http://www.w3.org/Graphics/SVG/1.1/DTD/svg11.dtd">
<svg width="100%" height="100%" viewBox="0 0 1600 1600" version="1.1" xmlns="http://www.w3.org/2000/svg"
    xmlns:xlink="http://www.w3.org/1999/xlink" xml:space="preserve" xmlns:serif="http://www.serif.com/" preserveAspectRatio="xMidYMid slice">
    <defs>
        <style>
            #mypath {
                stroke: #000ef7;
                stroke-width:3px;
                stroke-dasharray: 32px 800px;
                stroke-dashoffset: 0;
                animation: dash 30s linear infinite;
                fill:none;
                shape-rendering: crispEdges;
            }
            svg{
                border:1px solid red;
            }

            @keyframes dash {
                to {
                    stroke-dashoffset: 832px;
                }
            }
        </style>
    </defs>


    <path id="mypath" 
        d="M560,360C696.003,403.501 786.648,453.123 864.817,419.94C911.456,400.142 993.544,342.213 1036.15,334.905C1106.18,322.895 1228,404.618 1248.55,446.637C1279.1,509.121 1290.19,715.488 1120,750C1028.2,768.615 904.539,660.635 770,660C717.036,659.75 624.524,693.481 517.205,659.466C481.435,648.128 350.934,586.657 280.738,652.417C247.603,683.459 266.432,795.778 318.755,854.552C495.769,1053.39 799.816,1115.06 890,1090C1103.52,1030.67 1092.24,998.298 1306.26,941.244C1397.05,917.043 1464.42,936.648 1500,970C1535.58,1003.35 1532.69,1094.23 1519.75,1141.35C1504.26,1197.8 1453.3,1252.51 1400,1290C1285,1370.89 1134.36,1370.37 1056.2,1379.59C941.057,1393.17 820.185,1353.45 790,1340C710.377,1304.52 596.458,1227.65 539.173,1172.82C498.593,1133.98 432.368,1000.61 548.609,869.436C576.395,838.08 612.551,804.441 620,750C624.612,716.29 615.296,676.376 526.337,550.606C401.882,374.651 305.63,326.622 279.309,286.667C255.893,251.122 237.661,171.354 343.545,178.193C382.847,180.731 588.23,176.349 675.469,300.62C725.874,372.42 700.909,433.81 697.03,451.495C685.461,504.244 664.264,601.52 690.735,735.709C707.101,818.672 714.015,829.982 740,860C756.271,878.796 800.096,931.37 880,940C1045.76,957.903 1070.35,871.741 1210,1010C1294.9,1094.05 1079.2,1428.89 757.779,1408.34C583.292,1397.19 270.029,1279.24 179.305,1077.85C155.449,1024.89 126.031,896.019 118.5,785.841C117.148,766.059 106.36,608.219 150,540C223.823,424.597 329.636,286.318 560,360Z"
         />

</svg>