<?xml version="1.0" encoding="UTF-8" standalone="no"?>
<!DOCTYPE svg PUBLIC "-//W3C//DTD SVG 1.1//EN" "http://www.w3.org/Graphics/SVG/1.1/DTD/svg11.dtd">
<svg width="100%" height="100%" viewBox="0 0 1600 1600" version="1.1" xmlns="http://www.w3.org/2000/svg" xmlns:xlink="http://www.w3.org/1999/xlink" xml:space="preserve" xmlns:serif="http://www.serif.com/" preserveAspectRatio="xMidYMid slice" >
    <defs>
        <style type="text/css">
            .pdash {
                stroke: #ffee00;
                stroke-width:40px;
                stroke-dasharray: 160px 440px;
                stroke-dashoffset: 0;
                stroke-linecap: round;
                animation: dash 20s linear infinite;
                fill:none;
                shape-rendering: crispEdges;
            }

            @keyframes dash {
                to {
                    stroke-dashoffset: 600px;
                }
            }
        </style>
        </defs>
    
    <g transform="matrix(1,0,0,1,-28.6407,126.487)">
        <path class="pdash" d="M560,360C696.003,403.501 786.648,453.123 864.817,419.94C911.456,400.142 993.544,342.213 1036.15,334.905C1106.18,322.895 1228,404.618 1248.55,446.637C1279.1,509.121 1290.19,715.488 1120,750C1028.2,768.615 904.539,660.635 770,660C717.036,659.75 624.524,693.481 517.205,659.466C481.435,648.128 350.934,586.657 280.738,652.417C247.603,683.459 266.432,795.778 318.755,854.552C495.769,1053.39 799.816,1115.06 890,1090C1103.52,1030.67 1092.24,998.298 1306.26,941.244C1397.05,917.043 1464.42,936.648 1500,970C1535.58,1003.35 1541.58,1096.39 1528.64,1143.51C1513.15,1199.96 1468.61,1271.69 1418.64,1313.51C1327.78,1389.57 1209.42,1371.74 1068.64,1393.51C954.065,1411.23 820.185,1353.45 790,1340C710.377,1304.52 596.458,1227.65 539.173,1172.82C498.593,1133.98 432.368,1000.61 548.609,869.436C576.395,838.08 612.551,804.441 620,750C624.612,716.29 615.296,676.376 526.337,550.606C401.882,374.651 305.63,326.622 279.309,286.667C255.893,251.122 237.661,171.354 343.545,178.193C382.847,180.731 588.23,176.349 675.469,300.62C725.874,372.42 700.909,433.81 697.03,451.495C685.461,504.244 664.264,601.52 690.735,735.709C707.101,818.672 714.015,829.982 740,860C756.271,878.796 800.096,931.37 880,940C1045.76,957.903 1070.35,871.741 1210,1010C1294.9,1094.05 1079.2,1428.89 757.779,1408.34C583.292,1397.19 270.029,1279.24 179.305,1077.85C155.449,1024.89 126.031,896.019 118.5,785.841C117.148,766.059 106.36,608.219 150,540C223.823,424.597 329.636,286.318 560,360Z" />
    </g>
    <g transform="matrix(-1.04086,1.5966e-18,1.5966e-18,-1.02783,1651.1,1608.46)">
        <path class="pdash" d="M560,360C696.003,403.501 786.648,453.123 864.817,419.94C911.456,400.142 993.544,342.213 1036.15,334.905C1106.18,322.895 1228,404.618 1248.55,446.637C1279.1,509.121 1290.19,715.488 1120,750C1028.2,768.615 904.539,660.635 770,660C717.036,659.75 624.524,693.481 517.205,659.466C481.435,648.128 350.934,586.657 280.738,652.417C247.603,683.459 266.432,795.778 318.755,854.552C495.769,1053.39 799.816,1115.06 890,1090C1103.52,1030.67 1092.24,998.298 1306.26,941.244C1397.05,917.043 1464.42,936.648 1500,970C1535.58,1003.35 1532.69,1094.23 1519.75,1141.35C1504.26,1197.8 1453.3,1252.51 1400,1290C1285,1370.89 1134.36,1370.37 1056.2,1379.59C941.057,1393.17 820.185,1353.45 790,1340C710.377,1304.52 596.458,1227.65 539.173,1172.82C498.593,1133.98 432.368,1000.61 548.609,869.436C576.395,838.08 612.551,804.441 620,750C624.612,716.29 615.296,676.376 526.337,550.606C401.882,374.651 305.63,326.622 279.309,286.667C255.893,251.122 237.661,171.354 343.545,178.193C382.847,180.731 588.23,176.349 675.469,300.62C725.874,372.42 700.909,433.81 697.03,451.495C685.461,504.244 664.264,601.52 690.735,735.709C707.101,818.672 714.015,829.982 740,860C756.271,878.796 800.096,931.37 880,940C1045.76,957.903 1070.35,871.741 1210,1010C1294.9,1094.05 1079.2,1428.89 757.779,1408.34C583.292,1397.19 270.029,1279.24 179.305,1077.85C155.449,1024.89 126.031,896.019 118.5,785.841C117.148,766.059 106.36,608.219 150,540C223.823,424.597 329.636,286.318 560,360Z" />
    </g>
    <g>
        <path class="pdash" d="M200,60C286.817,58.237 292.188,219.534 420,260C547.812,300.466 621.276,277.635 780,340C938.724,402.365 1065.88,238.323 1140,280C1323.73,383.309 1218.39,548.646 1300,560C1438.32,579.243 1501.59,755.449 1460,820C1418.41,884.551 1329.47,1061.54 1380,1120C1430.53,1178.46 1447.41,1237.47 1420,1280C1392.59,1322.53 1282.43,1264.99 1260,1320C1237.57,1375.01 1188.05,1465.16 1120,1460C1051.95,1454.84 1011.65,1338.23 920,1360C828.348,1381.77 658.967,1522.18 600,1460C541.033,1397.82 496.165,1264.49 380,1260C263.835,1255.51 201.563,1110.12 220,1060C238.437,1009.88 348.244,901.072 320,820C291.756,738.928 227.52,659.907 260,580C292.48,500.093 226.914,433.383 180,420C133.086,406.617 109.881,297.832 120,240C130.119,182.168 101.187,62.007 200,60Z" />
    </g>
    <path class="pdash" d="M1180,100C1248.73,48.61 1362.73,71.552 1400,160C1437.27,248.448 1292.18,383.733 1340,460C1387.82,536.267 1409.59,631.717 1380,680C1350.41,728.283 1265.19,753.73 1280,840C1294.81,926.27 1357.3,1139.87 1300,1140C1198.84,1140.24 884.457,1333.71 760,1300C561.76,1246.31 684.468,1172.81 660,1080C632.705,976.471 545.495,936.782 500,900C438.555,850.323 228.253,884.75 160,880C91.747,875.25 46.858,585.154 140,500C233.142,414.846 331.096,401.955 380,360C428.904,318.045 468.469,128.661 560,100C701.554,55.675 903.435,207.903 960,220C1066.98,242.878 1120.81,144.26 1180,100Z" />
</svg>
