<svg xmlns="http://www.w3.org/2000/svg" width="868" height="704">
<defs>
<style>

   .pdash {
     stroke-linecap: round;
      shape-rendering: crispEdges;
    stroke-dasharray: 90 90;
    
   }

   @keyframes vdash {
      to {
         stroke-dashoffset: 0;
      }
   }

   @keyframes hdash {
      to {
         stroke-dashoffset: 0;
      }
   }

   .pathv{
      fill:none;  
      
      /* stroke:#000ef7; */
      stroke: #7ADCFF;
     /* stroke-dasharray: 1692 1692; */
     stroke-width:0.7px;
      stroke-dashoffset:16926;  
      animation: vdash 501s linear infinite;
   }
   .pathh{
      fill:none;  
      stroke:#ffee00;
      stroke-width:1px;
         /* stroke-dasharray:7137; */
         /* stroke-dasharray: 714 714; */

      stroke-dashoffset:7137; 
      animation: hdash 213s linear infinite;

   }
   </style>
</defs>
  <path id="pathh" class="pdash pathh" stroke-linecap="round" stroke-miterlimit="10" stroke-width="2" d="m1 624 223 40s50 5 74 9c18 3 33 14 50 19q20 7 39 10 22 1 43-5 22-5 43-15l39-18 33-12q16-4 31-5l28-1 27-2a227 227 0 0 0 51-14l23-9 22-8 43-10 20-3 20-3 20-4 18-3 18-4-16-164-12 4-11 4-10 5-12 5-13 5-15 4-16 2-18 3-17 3-19 4-18 4-20 5-20 6-22 5-24 4-27 4q-14 2-28 6l-30 10-35 13-43 14q-28 7-57 9c-48 1-143-15-143-15l83-51 116-28q24-5 47-11l33-12a352 352 0 0 1 55-13l25-3 23-3 21-4 19-3 19-3 18-2 17-3 17-2 16-2 14-2 13-4 10-3 10-4 9-3 8-2 10-2 10-2-16-39-10 1-9 1-8 1-8 1-8 1-8 2-9 2-11 3-14 2-15 1-16 2-17 2-18 1-19 2-20 2-21 2-24 3-26 2-29 3q-15 2-29 6l-33 12c-31 10-94 25-94 25l37-52s39-18 60-23q17-3 35-4l33-3 28-3 24-2 43-4 20-2 18-2 17-1 16-2 14-1 13-2 10-1 8-1 8-1h15l8 1 17-1h10l-6-24-10 1-9 1h-9l-8-1h-8l-7-1-8-1h-16l-10 1-11 1-14 1-15 2-16 1-18 2-20 2-22 3-22 2-26 3-31 3-39 4-59 6 7-26 75-5 36-4 27-3 24-3 21-2 20-3 17-2 16-1 14-2 13-1h12l10-1h9l9 1h16l9 1h8l9-1h9l10-1 9-1 5-26-9 2-8 1-9 1h-9l-9 1-9 1-9 1h-19l-10 1h-10l-11 1h-11l-13 1-14 2-15 1-17 2-20 3-78 9-72 4 30-22 62-1 30-3 23-4 37-5 16-1 13-2 12-1 12-1 11-1 11-1 11-1 10-1 10-2 10-1 9-1 9-1 9-1 8-1 8-1 8-1 8-1 2-21-6 1h-7l-7 1-8 1-8 1-8 1-9 2-9 1-10 2-10 1-10 2-11 2-11 2-11 1-12 2-13 1-13 1-15 2-18 2-21 3-28 5-60 3 25-16 59-7 25-4 18-3 16-1 13-2 13-1 12-2 11-2 11-2 11-2 10-2 9-2 9-1 9-2 8-1 8-1 7-1 7-1 7-1h6l6-1h6l1-18h-5l-5 1h-6l-6 1h-6l-6 1-7 1-7 1-8 1-8 2-8 1-9 2-10 1-10 2-10 2-11 3-12 2-13 2-14 1-16 2-22 3-54 8 29-22 48-7 20-2 15-2 13-2 12-3 11-2 10-2 9-1 9-2 8-1 8-2 7-1 7-1 7-1h6l6-1 6-1h5l5-1h10l5-1 3-17h-9l-5 1h-4l-5 1h-5l-5 1h-5l-6 1-6 1h-6l-7 1-7 1-8 2-8 1-8 1-10 2-11 2-11 2-14 2-18 3-42 6 29-23 37-4 16-3 12-2 10-2 10-1 8-1 7-1 7-1 6-1 6-1 6-1h5l5-1h5l5-1h8l5-1h8l4-1h3l3-16h-7l-3 1h-8l-3 1h-8l-4 1h-9l-4 1h-5l-6 1h-5l-6 1-15 2-9 1-10 2-13 2-33 5 27-21 28-3 11-2 8-1h7l6-1 6-1h9l5-1h11l4-1h6l4-1h9l3-1h5l1-14h-5l-2 1h-10l-3 1h-11l-4 1h-15l-5 1h-5l-7 1h-9l-21 3 22-16 16-1 7-1c9-1 18 2 27 0l2-1h15l2-1h5l-1-10h-11l-2 1c-13 3-41 0-41 0l16-9h30l1-1h5l-2-7v0h-1v0h-1v0h-1v0h-1v0h-2v0h-2v0h-10l18-8v0" paint-order="fill stroke markers"/>
  <path id="pathv" class="pdash pathv" stroke-linecap="round" stroke-miterlimit="10" stroke-width="2" d="m1 624 239-98s60-28 83-51c21-20 48-73 48-73s28-33 37-52c7-14 13-46 13-46l7-26 26-23 30-22 24-16 25-16 29-20 29-22 30-22 29-23 28-20 27-21 26-18 22-16 19-13 16-9 16-8 18-8v0l-14 8-12 8-13 9-14 12-17 14-19 18-22 19-24 21-24 21-24 21-23 21-24 21-24 20-22 18-20 19-23 22-23 25s-10 19-12 29c-4 16 0 34-3 50q-8 37-26 70c-16 33-32 67-56 94-44 50-159 123-159 123l74 9s103-87 142-141q31-44 46-96 9-35 12-71c2-14 1-29 5-42q6-16 16-29l20-25 18-21 19-19 20-20 21-19 21-20 21-20 22-22 22-21 21-20 20-19 17-16 15-15 23-20 11-8 12-8v0l-11 8-10 8-10 9-10 11-13 14-16 16-18 18-19 20-20 21-21 22-20 20-19 19-18 19-18 19-17 20-16 21a295 295 0 0 0-30 54l-9 39c-4 21-3 44-8 65q-12 50-36 94c-36 64-135 174-135 174q19 7 39 10s97-126 131-197q20-43 29-89c5-20 5-40 9-60q3-19 8-39a204 204 0 0 1 26-54l14-21 15-20 16-18 16-18 17-19 19-21 19-22 19-21 18-19 16-17 14-16 12-14 9-11 9-9 9-8 10-8v0l-9 8-8 8-8 9-8 11-11 13-13 16-14 17-16 19-18 20-18 21-18 22-17 19-14 18-14 18-12 19-13 22-13 25q-6 14-10 29l-6 39q-3 29-8 57-8 44-26 84c-31 71-118 202-118 202q25-7 43-15s76-125 103-193q15-39 23-81 5-28 7-57 1-20 4-38 4-15 10-30l11-25 10-21 11-18 11-18 14-18 16-20 17-22 17-21 16-19 15-19 13-17 11-15 10-13 8-11 7-9 7-8 8-8v0l-8 8-6 8-6 9-7 11-9 13-10 15-12 16-14 19-15 19-15 20-16 21-28 40-11 17-9 19-8 20-8 25-9 30q-3 18-4 38-2 29-5 56-6 41-19 80c-23 63-91 179-91 179l33-12s62-111 82-171q12-39 16-80l4-54 4-38 7-30 6-24 6-21 7-18 11-18 12-19 14-21 15-20 14-20 14-19 12-18 11-16 10-15 8-13 6-11 5-9 6-8 7-8v0l-6 8-5 8-5 9-6 11-7 13-18 30-12 18-12 18-13 20-14 20-13 21-12 20-10 18-6 18-5 20-4 25-5 29-3 38-4 53q-3 40-13 78c-17 59-73 171-73 171l28-1s49-116 65-176q8-37 12-75l3-51 2-38 3-30 2-24 3-19q2-9 6-19l10-19 12-20 12-20 12-20 12-20 11-18 11-17 9-16 14-27 5-11 4-9 4-8 6-8v0l-5 8-4 8-3 9-5 10-5 13-8 15-8 15-9 17-10 18-11 19-11 20-11 20-11 20-10 20q-4 9-6 19l-2 20v23l-1 29-1 38q0 26-2 51-3 36-10 72c-14 61-58 179-58 179l26-6s38-117 50-177q7-35 9-71l1-50-1-37-2-29-1-23 2-19 7-20 9-21 10-20 10-19 10-20 10-18 9-18 9-17 7-15 7-15 5-13 3-10 3-9 4-8 4-8v0l-4 8-2 8-3 9-3 10-4 13-6 14-7 16-8 16-8 18-9 18-9 19-9 20-9 20-9 21-7 20q-3 10-3 20l2 22 5 28 3 38q2 25 1 49-1 35-7 69c-10 59-44 173-44 173l23-9s29-111 38-167a480 480 0 0 0 3-117l-7-37-6-27-2-21 3-21 8-22 9-21 8-20 8-19 8-19 8-18 7-17 7-17 6-15 12-38 2-8 2-8 3-8v0l-3 8-1 8-2 8-2 11-3 12-5 15-5 15-6 16-7 18-7 18-7 18-7 19-7 20-8 21-8 23-5 21q-1 11 1 21 3 13 7 26 6 18 10 35 5 24 6 50 2 34-2 67c-7 55-34 162-34 162l22-6s24-105 28-158a364 364 0 0 0-11-117l-11-34q-4-12-7-24-2-11-1-22 2-12 6-22l8-23 8-22 6-19 6-19 6-18 6-18 6-17 6-16 5-16 4-14 2-12 2-11 1-9 1-7 2-8v0l-2 8v7l-1 9-1 11-2 12-3 14-5 15-5 17-5 17-5 17-6 18-5 19-5 19-7 22-8 23-6 24q-2 11-1 22 2 12 7 23 7 16 12 32a359 359 0 0 1 18 115c-1 53-22 158-22 158l20-3s16-106 15-160q-1-34-9-67-5-22-14-44l-12-31q-5-11-7-23-1-11 1-22 2-13 7-25l8-23 6-22 4-19 4-18 5-18 5-18 5-17 4-16 4-15 3-14 1-12 1-11V9l1-8v0l-1 8v7l1 9v10l-1 13a235 235 0 0 1-9 45l-5 17-4 17-4 18-3 18-3 19-6 22-7 24-7 24q-2 12-2 24 2 12 7 23l12 29 15 42s10 43 12 65c4 54-7 162-7 162l20-4s4-109-3-163c-3-21-14-62-14-62l-15-41s-9-18-12-28q-4-11-6-23 0-12 2-24l7-25 6-24 5-22 2-18 3-18 3-18 4-18 4-16 3-17 3-15 1-14 1-12-1-10-1-9V1v8l1 7 2 9 1 10v12l-1 14-3 15-2 16-4 17-3 18-3 17-2 18-1 19-4 21-6 24-5 25q-3 12-3 24 2 12 6 23c3 10 12 28 12 28l16 40s12 40 15 60c8 54 10 164 10 164l18-4s-6-110-16-164c-4-20-17-58-17-58l-16-39-12-27-6-24 2-24 5-26 5-23 2-21 1-18 1-18 3-18 3-17 2-17 3-16 1-15 1-14-1-12-1-10-2-9-2-7V1" paint-order="fill stroke markers"/>
</svg>
